<?xml version="1.0" encoding="utf-8"?>
<!-- Generator: Adobe Illustrator 16.0.0, SVG Export Plug-In . SVG Version: 6.00 Build 0)  -->
<!DOCTYPE svg PUBLIC "-//W3C//DTD SVG 1.1//EN" "http://www.w3.org/Graphics/SVG/1.1/DTD/svg11.dtd">
<svg version="1.1" id="Layer_1" xmlns="http://www.w3.org/2000/svg" xmlns:xlink="http://www.w3.org/1999/xlink" x="0px" y="0px"
	 width="34px" height="32px" viewBox="0 0 34 32" enable-background="new 0 0 34 32" xml:space="preserve">
<g>
	<path fill="#FFFFFF" d="M4.078,20.951c-0.013-0.066-0.023-0.133-0.033-0.2l-0.019-0.126h0l-0.009-0.063l0.713-0.105l0.055,0.363
		L4.078,20.951z"/>
	<path fill="#FFFFFF" d="M3.941,19.989c-0.035-0.362-0.052-0.697-0.053-1.024l0,0v-0.014h0.721l-0.721,0.008l0.36-0.001L3.892,18.96
		h0.718H4.606h0.003l-0.716,0.005l0.716-0.001c0,0.323,0.02,0.642,0.049,0.958L3.941,19.989z"/>
	<polygon fill="#FFFFFF" points="4.279,21.841 4.244,21.702 4.942,21.522 4.976,21.655 	"/>
	<path fill="#FFFFFF" d="M23.26,29.487l-0.434-1.316C26.482,26.539,29,22.92,29,18.951v-6.487C29,6.938,24.27,2,18.664,2h-3.604
		C9.444,2,5.045,6.624,5.045,12.244l-0.002,6.879c-0.003,0.22-0.008,0.494,0.012,0.711l0.016,0.207
		c0.01,0.112,0.019,0.237,0.035,0.349l0.022,0.191c0.006,0.057,0.011,0.116,0.021,0.172c0.042,0.225,0.087,0.454,0.146,0.677
		c0.001,0.007,0.017,0.072,0.019,0.079c0.051,0.197,0.103,0.345,0.154,0.49l0.068,0.194l-1.366,0.461l-0.063-0.181
		c-0.062-0.177-0.124-0.355-0.172-0.537l-0.026-0.104c-0.075-0.295-0.127-0.555-0.176-0.815c-0.017-0.092-0.027-0.183-0.037-0.272
		L3.68,20.613c-0.021-0.14-0.033-0.282-0.045-0.426L3.62,20.023c-0.025-0.27,0.175-0.539,0.179-0.811L4,18.951v-6.487
		C4,6.143,8.743,1,15.061,1h3.604C25.064,1,30,6.143,30,12.464v6.487C30,23.489,27.437,27.625,23.26,29.487z"/>
	<path fill="#FFFFFF" d="M4.878,23h-0.32C2.045,23,0,21.234,0,18.643v-0.104c0-2.494,1.796-4.436,4.272-4.616
		c0.2-0.017,0.396,0.054,0.543,0.191c0.146,0.136,0.23,0.327,0.23,0.528l-0.003,4.594c-0.003,0.219-0.008,0.435,0.013,0.649
		c0.008,0.095,0.012,0.186,0.016,0.275c0.003,0.081,0.005,0.163,0.017,0.245l0.016,0.113c0.011,0.078,0.022,0.156,0.036,0.232
		c0.042,0.235,0.095,0.46,0.152,0.685c0.008,0.032,0.019,0.08,0.027,0.129c0.028,0.118,0.053,0.233,0.079,0.354
		c0.021,0.096,0.04,0.197,0.061,0.277c0.088,0.119,0.14,0.095,0.14,0.255C5.599,22.85,5.276,23,4.878,23z M4,15.505
		c-2,0.403-3,1.563-3,3.034v0.104c0,1.563,1,2.87,3,3.187c0-0.001,0-0.003,0-0.004c0-0.292-0.181-0.55-0.229-0.813
		c-0.017-0.093-0.056-0.193-0.07-0.292l-0.027-0.105c-0.02-0.136-0.032-0.268-0.038-0.4c-0.002-0.064-0.007-0.129-0.013-0.194
		c-0.025-0.265,0.174-0.533,0.178-0.806L4,18.951V15.505z"/>
	<path fill="#FFFFFF" d="M4.373,21.23c-0.351,0-0.658-0.257-0.711-0.613l0.067-0.011c-0.001-0.001-0.002-0.002-0.002-0.003
		l-0.065,0.01l-0.043-0.295c0-0.003-0.001-0.005-0.001-0.009c-0.013-0.096-0.025-0.191-0.034-0.289
		c-0.036-0.396,0.254-0.746,0.65-0.783c0.391-0.051,0.746,0.252,0.785,0.648c0.007,0.075,0.017,0.15,0.026,0.226l0.043,0.295
		c0.057,0.394-0.215,0.758-0.608,0.816C4.444,21.228,4.408,21.23,4.373,21.23z"/>
	<path fill="#FFFFFF" d="M4.593,22.334c-0.321,0-0.614-0.216-0.698-0.54c-0.029-0.113-0.057-0.228-0.083-0.342
		c-0.033-0.146-0.064-0.291-0.09-0.439c-0.07-0.391,0.189-0.765,0.58-0.836c0.39-0.076,0.765,0.187,0.838,0.576
		c0.024,0.127,0.05,0.253,0.078,0.378c0,0.001,0,0.001,0,0.001l0.074,0.305c0.098,0.385-0.135,0.776-0.52,0.875
		C4.711,22.327,4.652,22.334,4.593,22.334z"/>
	<path fill="#FFFFFF" d="M4.878,23.275c-0.297,0-0.575-0.185-0.68-0.479c-0.1-0.282-0.189-0.57-0.267-0.861
		c-0.103-0.384-0.037-0.778,0.347-0.883C4.663,20.948,5,21.176,5,21.559c0,0.002,0,0.002,0,0.003v0.155C5,21.971,5.435,22,5.521,23
		H6v-0.686c0,0.375-0.285,0.786-0.66,0.92C5.26,23.262,4.958,23.275,4.878,23.275z"/>
	<g>
		<path fill="#FFFFFF" d="M29.166,23h-0.319c-0.226,0-0.438,0.066-0.573-0.113c-0.137-0.18-0.182-0.325-0.121-0.543l0.188-0.331
			C28.687,20.778,29,20.006,29,18.951v-4.309c0-0.201-0.002-0.392,0.145-0.528c0.146-0.137,0.369-0.207,0.563-0.191
			C32.184,14.104,34,16.045,34,18.539v0.104C34,21.19,31.719,23,29.166,23z M30,15.505v3.446c0,1.042-0.272,1.902-0.539,2.883
			C30.935,21.525,32,20.189,32,18.643v-0.104C32,17.067,32,15.908,30,15.505z"/>
	</g>
	<path fill="#FFFFFF" d="M20.826,32h-3.604c-1.59,0-2.883-1.41-2.883-3s1.293-3,2.883-3h3.604c1.59,0,2.883,1.41,2.883,3
		S22.416,32,20.826,32z M17.223,28c-0.795,0-1.441,0.705-1.441,1.5c0,0.794,0.646,1.5,1.441,1.5h3.604
		c0.795,0,1.441-0.706,1.441-1.5c0-0.795-0.646-1.5-1.441-1.5H17.223z"/>
</g>
</svg>
